<svg viewBox="0 -0.5 25 25" fill="none" xmlns="http://www.w3.org/2000/svg"><g id="SVGRepo_bgCarrier" stroke-width="0"></g><g id="SVGRepo_tracerCarrier" stroke-linecap="round" stroke-linejoin="round"></g><g id="SVGRepo_iconCarrier"> <path fill-rule="evenodd" clip-rule="evenodd" d="M9.69201 17.95C9.6909 18.5286 9.22121 18.9968 8.64268 18.996C8.06414 18.9953 7.59564 18.5259 7.59601 17.9474C7.59638 17.3688 8.06547 16.9 8.64401 16.9C8.92222 16.9003 9.18893 17.0111 9.38547 17.208C9.58201 17.4049 9.69227 17.6718 9.69201 17.95V17.95Z" stroke="#000000" stroke-width="1.5" stroke-linecap="round" stroke-linejoin="round"></path> <path fill-rule="evenodd" clip-rule="evenodd" d="M15.281 17.95C15.2799 18.5286 14.8102 18.9968 14.2317 18.996C13.6531 18.9953 13.1846 18.5259 13.185 17.9474C13.1854 17.3688 13.6545 16.9 14.233 16.9C14.5112 16.9003 14.7779 17.0111 14.9745 17.208C15.171 17.4049 15.2813 17.6718 15.281 17.95V17.95Z" stroke="#000000" stroke-width="1.5" stroke-linecap="round" stroke-linejoin="round"></path> <path fill-rule="evenodd" clip-rule="evenodd" d="M19.1 7.80005H8.99303L8.29303 13.4C8.29303 14.1732 8.91983 14.8 9.69303 14.8L17.5 14C17.9917 13.9998 18.4472 13.7417 18.7 13.32L20.3 9.92005C20.5593 9.48764 20.5661 8.9492 20.3177 8.51041C20.0694 8.07163 19.6042 7.80029 19.1 7.80005Z" stroke="#000000" stroke-width="1.5" stroke-linecap="round" stroke-linejoin="round"></path> <path d="M8.993 7.8L8.324 5.118C8.30611 5.04823 8.24303 4.99958 8.171 5H5.5" stroke="#000000" stroke-width="1.5" stroke-linecap="round" stroke-linejoin="round"></path> </g></svg>