<svg height="200px" width="200px" version="1.1" id="Layer_1" xmlns="http://www.w3.org/2000/svg" xmlns:xlink="http://www.w3.org/1999/xlink" viewBox="0 0 511.996 511.996" xml:space="preserve" fill="#FD8136"><g id="SVGRepo_bgCarrier" stroke-width="0"></g><g id="SVGRepo_tracerCarrier" stroke-linecap="round" stroke-linejoin="round"></g><g id="SVGRepo_iconCarrier"> <path d="M506.692,0.704c-3.157-1.365-6.826-0.683-9.301,1.792l-28.073,28.159L441.244,2.496c-3.328-3.328-8.789-3.328-12.117,0 l-28.073,28.159L372.981,2.496c-3.328-3.328-8.789-3.328-12.117,0l-28.073,28.159L304.718,2.496c-3.328-3.328-8.789-3.328-12.117,0 l-28.073,28.159L236.455,2.496c-2.475-2.389-6.144-3.157-9.301-1.792c-3.242,1.28-5.29,4.437-5.29,7.85 c0,185.164-15.103,291.399-46.163,324.25H8.541c-2.475,0-4.778,1.024-6.4,2.901s-2.389,4.352-2.048,6.826 c11.434,82.854,33.62,167.757,110.842,169.464h273.138C500.889,511.057,511.47,126.479,511.982,8.554 C511.982,5.15,509.934,1.992,506.692,0.704z M111.106,494.938c-49.491-1.109-77.479-44.627-92.667-145.059H274.17 c8.618,58.621,23.21,117.071,59.474,145.059H111.106z M384.159,494.938c-51.112-1.109-79.271-47.443-94.118-154.787 c-0.597-4.181-4.181-7.338-8.448-7.338h-84.561c27.391-43.518,40.787-141.476,41.811-303.686l19.626,19.626 c3.328,3.328,8.789,3.328,12.117,0l28.073-28.159l28.073,28.159c3.328,3.328,8.789,3.328,12.117,0l28.073-28.159l28.073,28.159 c3.328,3.328,8.789,3.328,12.117,0l28.073-28.159l28.073,28.159c3.328,3.328,8.789,3.328,12.117,0l19.37-19.455 C491.93,264.038,457.116,494.426,384.159,494.938z"></path> <path style="fill:#FD8136;" d="M333.645,494.938H111.106c-49.491-1.109-77.479-44.627-92.667-145.059H274.17 C282.788,408.5,297.38,466.951,333.645,494.938z"></path> <path style="fill:#fff;" d="M475.376,48.744c-3.328,3.328-8.789,3.328-12.117,0l-28.073-28.159l-28.073,28.159 c-3.328,3.328-8.789,3.328-12.117,0l-28.073-28.159L338.85,48.744c-3.328,3.328-8.789,3.328-12.117,0L298.66,20.586l-28.073,28.159 c-3.328,3.328-8.789,3.328-12.117,0l-19.626-19.626c-1.024,162.211-14.421,260.168-41.811,303.686h84.561 c4.266,0,7.85,3.157,8.448,7.338c14.847,107.344,43.006,153.678,94.118,154.787c72.956-0.512,107.771-230.9,110.586-465.641 L475.376,48.744z M452.252,187.754H273.061c-4.693,0-8.533-3.84-8.533-8.533c0-4.693,3.84-8.533,8.533-8.533h179.191 c4.693,0,8.533,3.84,8.533,8.533C460.785,183.914,456.945,187.754,452.252,187.754z M452.252,145.089H273.061 c-4.693,0-8.533-3.84-8.533-8.533c0-4.693,3.84-8.533,8.533-8.533h179.191c4.693,0,8.533,3.84,8.533,8.533 C460.785,141.249,456.945,145.089,452.252,145.089z M452.252,102.425H273.061c-4.693,0-8.533-3.84-8.533-8.533 s3.84-8.533,8.533-8.533h179.191c4.693,0,8.533,3.84,8.533,8.533S456.945,102.425,452.252,102.425z"></path> <path d="M460.785,93.892c0,4.693-3.84,8.533-8.533,8.533H273.061c-4.693,0-8.533-3.84-8.533-8.533s3.84-8.533,8.533-8.533h179.191 C456.945,85.359,460.785,89.199,460.785,93.892z"></path> <path d="M460.785,136.556c0,4.693-3.84,8.533-8.533,8.533H273.061c-4.693,0-8.533-3.84-8.533-8.533c0-4.693,3.84-8.533,8.533-8.533 h179.191C456.945,128.023,460.785,131.863,460.785,136.556z"></path> <path d="M460.785,179.221c0,4.693-3.84,8.533-8.533,8.533H273.061c-4.693,0-8.533-3.84-8.533-8.533c0-4.693,3.84-8.533,8.533-8.533 h179.191C456.945,170.688,460.785,174.528,460.785,179.221z"></path> </g></svg>