<?xml version="1.0" encoding="UTF-8"?>
<!DOCTYPE svg PUBLIC "-//W3C//DTD SVG 1.1//EN" "http://www.w3.org/Graphics/SVG/1.1/DTD/svg11.dtd">
<svg xmlns="http://www.w3.org/2000/svg" version="1.1" width="350px" height="350px" style="shape-rendering:geometricPrecision; text-rendering:geometricPrecision; image-rendering:optimizeQuality; fill-rule:evenodd; clip-rule:evenodd" xmlns:xlink="http://www.w3.org/1999/xlink">
<g><path style="opacity:0.029" fill="#000000" d="M 117.5,-0.5 C 155.833,-0.5 194.167,-0.5 232.5,-0.5C 290.509,19.5086 329.509,58.5086 349.5,116.5C 349.5,155.5 349.5,194.5 349.5,233.5C 329.239,289.76 291.239,328.426 235.5,349.5C 195.167,349.5 154.833,349.5 114.5,349.5C 57.7995,328.124 19.4661,288.791 -0.5,231.5C -0.5,193.833 -0.5,156.167 -0.5,118.5C 19.453,59.5472 58.7864,19.8806 117.5,-0.5 Z"/></g>
<g><path style="opacity:0.994" fill="#c54757" d="M 165.5,20.5 C 222.009,19.1385 267.176,40.8052 301,85.5C 335.444,139.278 338.111,194.612 309,251.5C 275.545,304.985 227.045,330.818 163.5,329C 93.5062,320.275 47.6728,282.441 26,215.5C 11.9263,154.938 27.093,103.104 71.5,60C 98.4449,36.4068 129.778,23.2401 165.5,20.5 Z"/></g>
<g><path style="opacity:1" fill="#feecc8" d="M 157.5,24.5 C 223.988,20.4873 274.155,46.8206 308,103.5C 336.352,163.003 330.685,219.003 291,271.5C 247.926,318.82 195.093,334.987 132.5,320C 70.9157,298.746 35.0824,255.913 25,191.5C 20.807,127.384 45.6403,78.2171 99.5,44C 117.798,33.9565 137.132,27.4565 157.5,24.5 Z"/></g>
<g><path style="opacity:1" fill="#cb4759" d="M 166.5,72.5 C 189.729,70.1801 205.229,79.8468 213,101.5C 213.497,103.81 213.663,106.143 213.5,108.5C 224.172,108.333 234.839,108.5 245.5,109C 252.181,112.416 253.181,117.083 248.5,123C 245.692,123.993 242.859,124.827 240,125.5C 236.43,148.016 232.097,170.349 227,192.5C 225.062,195.106 222.562,196.939 219.5,198C 189.833,198.667 160.167,198.667 130.5,198C 125.794,196.895 122.627,194.062 121,189.5C 116.735,167.908 112.901,146.241 109.5,124.5C 98.3679,124.218 95.7012,119.384 101.5,110C 112.731,108.544 124.064,108.044 135.5,108.5C 137.997,89.6751 148.33,77.6751 166.5,72.5 Z"/></g>
<g><path style="opacity:1" fill="#feecc8" d="M 166.5,77.5 C 186.994,74.9895 200.827,83.3229 208,102.5C 208.495,104.473 208.662,106.473 208.5,108.5C 185.833,108.5 163.167,108.5 140.5,108.5C 142.715,92.6285 151.381,82.2951 166.5,77.5 Z"/></g>
<g><path style="opacity:1" fill="#feeac7" d="M 104.5,113.5 C 151.168,113.333 197.835,113.5 244.5,114C 246.527,115.396 246.86,117.062 245.5,119C 234.59,119.179 223.757,119.679 213,120.5C 212.316,121.784 212.483,122.951 213.5,124C 220.492,124.5 227.492,124.666 234.5,124.5C 231.142,146.261 227.309,167.928 223,189.5C 221.681,191.487 219.848,192.654 217.5,193C 210.167,193.667 202.833,193.667 195.5,193C 210.77,183.973 218.437,170.473 218.5,152.5C 189.5,152.5 160.5,152.5 131.5,152.5C 131.123,170.25 138.457,183.75 153.5,193C 146.167,193.667 138.833,193.667 131.5,193C 129.376,191.878 127.543,190.378 126,188.5C 122.381,167.449 118.547,146.449 114.5,125.5C 132.491,124.667 150.491,124.167 168.5,124C 169.517,122.951 169.684,121.784 169,120.5C 147.573,119.673 126.073,119.173 104.5,119C 103.248,117.172 103.248,115.339 104.5,113.5 Z"/></g>
<g><path style="opacity:1" fill="#cb4859" d="M 174.5,119.5 C 177.85,119.335 181.183,119.502 184.5,120C 185.833,121.333 185.833,122.667 184.5,124C 180.833,124.667 177.167,124.667 173.5,124C 172.257,122.184 172.59,120.684 174.5,119.5 Z"/></g>
<g><path style="opacity:1" fill="#cb485a" d="M 191.5,119.5 C 197.176,119.334 202.843,119.501 208.5,120C 209.833,121.333 209.833,122.667 208.5,124C 202.5,124.667 196.5,124.667 190.5,124C 189.257,122.184 189.59,120.684 191.5,119.5 Z"/></g>
<g><path style="opacity:1" fill="#cc4b5c" d="M 154.5,134.5 C 159.82,133.761 163.82,135.594 166.5,140C 165.991,141.169 165.158,142.002 164,142.5C 159.793,138.566 155.627,138.566 151.5,142.5C 149.616,141.307 149.116,139.641 150,137.5C 151.652,136.601 153.152,135.601 154.5,134.5 Z"/></g>
<g><path style="opacity:1" fill="#cc4b5c" d="M 188.5,134.5 C 193.82,133.761 197.82,135.594 200.5,140C 199.902,141.301 198.902,142.135 197.5,142.5C 193.5,138.5 189.5,138.5 185.5,142.5C 183.616,141.307 183.116,139.641 184,137.5C 185.652,136.601 187.152,135.601 188.5,134.5 Z"/></g>
<g><path style="opacity:1" fill="#feecc8" d="M 136.5,157.5 C 161.833,157.5 187.167,157.5 212.5,157.5C 212.5,159.167 212.5,160.833 212.5,162.5C 187.167,162.5 161.833,162.5 136.5,162.5C 136.5,160.833 136.5,159.167 136.5,157.5 Z"/></g>
<g><path style="opacity:1" fill="#fde8c5" d="M 160.5,184.5 C 165.426,183.874 169.926,184.874 174,187.5C 180.485,183.242 186.652,183.575 192.5,188.5C 180.06,195.279 167.726,195.112 155.5,188C 157.233,186.811 158.9,185.644 160.5,184.5 Z"/></g>
<g><path style="opacity:1" fill="#cd4e5d" d="M 59.5,213.5 C 60.8221,213.33 61.9887,213.663 63,214.5C 63.4974,217.146 63.6641,219.813 63.5,222.5C 66.5,222.5 69.5,222.5 72.5,222.5C 72.3359,219.813 72.5026,217.146 73,214.5C 74.0495,213.483 75.2161,213.316 76.5,214C 77.6445,220.752 77.8112,227.586 77,234.5C 75.6667,235.833 74.3333,235.833 73,234.5C 72.502,231.518 72.3354,228.518 72.5,225.5C 69.5,225.5 66.5,225.5 63.5,225.5C 63.6646,228.518 63.498,231.518 63,234.5C 61.9887,235.337 60.8221,235.67 59.5,235.5C 59.5,228.167 59.5,220.833 59.5,213.5 Z"/></g>
<g><path style="opacity:1" fill="#cc4c5c" d="M 87.5,226.5 C 86.2601,229.024 85.0934,231.691 84,234.5C 82.9887,235.337 81.8221,235.67 80.5,235.5C 81.7828,228.588 83.9495,221.921 87,215.5C 88.5553,213.485 90.3886,213.152 92.5,214.5C 95.4425,220.718 98.1091,227.051 100.5,233.5C 99.6518,235.283 98.3185,235.783 96.5,235C 95.3688,230.387 92.3688,228.553 87.5,229.5C 87.5,228.5 87.5,227.5 87.5,226.5 Z"/></g>
<g><path style="opacity:1" fill="#cc495b" d="M 141.5,213.5 C 142.552,213.351 143.552,213.517 144.5,214C 146.291,216.414 147.957,218.914 149.5,221.5C 151.4,219.381 153.066,217.047 154.5,214.5C 156.204,213.177 157.537,213.51 158.5,215.5C 156.582,219.004 154.416,222.337 152,225.5C 151.502,228.817 151.335,232.15 151.5,235.5C 150.178,235.67 149.011,235.337 148,234.5C 147.667,231.5 147.333,228.5 147,225.5C 143.987,222.003 142.153,218.003 141.5,213.5 Z"/></g>
<g><path style="opacity:1" fill="#cc4b5c" d="M 197.5,228.5 C 198.678,227.001 200.345,226.001 202.5,225.5C 202.376,224.893 202.043,224.56 201.5,224.5C 199.721,218.049 198.388,218.382 197.5,225.5C 196.599,226.29 195.932,227.29 195.5,228.5C 195.039,230.55 194.372,232.55 193.5,234.5C 191.505,235.89 190.172,235.39 189.5,233C 192,226.833 194.5,220.667 197,214.5C 198.667,213.167 200.333,213.167 202,214.5C 204.891,220.506 207.391,226.673 209.5,233C 209.333,234.5 208.5,235.333 207,235.5C 205.287,234.046 204.12,232.212 203.5,230C 201.292,229.809 199.292,229.309 197.5,228.5 Z"/></g>
<g><path style="opacity:1" fill="#cc4c5c" d="M 215.5,213.5 C 218.728,213.299 221.895,213.633 225,214.5C 227.034,215.944 227.868,217.944 227.5,220.5C 224.886,220.723 223.219,219.556 222.5,217C 220.559,216.257 218.726,216.424 217,217.5C 216.316,218.784 216.483,219.951 217.5,221C 221.451,221.536 224.951,223.036 228,225.5C 229.823,232.349 227.156,235.682 220,235.5C 214.594,235.432 212.094,232.932 212.5,228C 213.5,227.333 214.5,227.333 215.5,228C 218.184,233.437 221.184,233.77 224.5,229C 224.355,228.228 224.022,227.561 223.5,227C 219.599,226.324 216.099,224.824 213,222.5C 211.927,218.9 212.76,215.9 215.5,213.5 Z"/></g>
<g><path style="opacity:1" fill="#cb485a" d="M 236.5,214.5 C 236.335,217.518 236.502,220.518 237,223.5C 237.717,222.956 238.217,222.289 238.5,221.5C 241.165,219.36 243.498,216.86 245.5,214C 246.793,213.51 248.127,213.343 249.5,213.5C 248.564,216.959 246.564,219.793 243.5,222C 246.998,225.97 249.331,230.47 250.5,235.5C 249.022,235.762 247.689,235.429 246.5,234.5C 244.527,231.36 242.36,228.36 240,225.5C 236.882,228.07 235.715,231.404 236.5,235.5C 235.178,235.67 234.011,235.337 233,234.5C 232.333,227.833 232.333,221.167 233,214.5C 234.292,213.209 235.458,213.209 236.5,214.5 Z"/></g>
<g><path style="opacity:1" fill="#cc495b" d="M 103.5,213.5 C 107.514,213.334 111.514,213.501 115.5,214C 120.028,216.824 120.695,220.49 117.5,225C 114.312,226.316 110.978,226.816 107.5,226.5C 107.664,229.187 107.497,231.854 107,234.5C 105.989,235.337 104.822,235.67 103.5,235.5C 103.5,228.167 103.5,220.833 103.5,213.5 Z"/></g>
<g><path style="opacity:1" fill="#cf5461" d="M 123.5,213.5 C 127.514,213.334 131.514,213.501 135.5,214C 139.883,216.918 140.55,220.585 137.5,225C 134.312,226.316 130.978,226.816 127.5,226.5C 127.664,229.187 127.497,231.854 127,234.5C 125.667,235.833 124.333,235.833 123,234.5C 122.205,227.42 122.372,220.42 123.5,213.5 Z"/></g>
<g><path style="opacity:1" fill="#cf5461" d="M 170.5,213.5 C 174.514,213.334 178.514,213.501 182.5,214C 186.933,216.331 187.6,219.498 184.5,223.5C 188.687,227.729 188.354,231.563 183.5,235C 178.913,235.799 174.413,235.632 170,234.5C 169.205,227.42 169.372,220.42 170.5,213.5 Z"/></g>
<g><path style="opacity:1" fill="#cd4e5e" d="M 255.5,213.5 C 260.43,213.197 265.263,213.531 270,214.5C 270.617,215.449 270.451,216.282 269.5,217C 265.848,217.499 262.182,217.665 258.5,217.5C 258.5,219.167 258.5,220.833 258.5,222.5C 262.167,222.5 265.833,222.5 269.5,222.5C 269.5,223.5 269.5,224.5 269.5,225.5C 265.833,225.5 262.167,225.5 258.5,225.5C 258.5,227.5 258.5,229.5 258.5,231.5C 262.5,231.5 266.5,231.5 270.5,231.5C 270.5,232.833 270.5,234.167 270.5,235.5C 265.238,235.805 260.072,235.471 255,234.5C 254.205,227.42 254.372,220.42 255.5,213.5 Z"/></g>
<g><path style="opacity:1" fill="#cd4c5c" d="M 272.5,213.5 C 278.176,213.334 283.843,213.501 289.5,214C 290.833,215 290.833,216 289.5,217C 287.527,217.495 285.527,217.662 283.5,217.5C 283.666,223.176 283.499,228.843 283,234.5C 281.989,235.337 280.822,235.67 279.5,235.5C 279.5,229.5 279.5,223.5 279.5,217.5C 277.167,217.5 274.833,217.5 272.5,217.5C 272.5,216.167 272.5,214.833 272.5,213.5 Z"/></g>
<g><path style="opacity:1" fill="#eaab9d" d="M 236.5,214.5 C 237.167,216.833 237.833,219.167 238.5,221.5C 238.217,222.289 237.717,222.956 237,223.5C 236.502,220.518 236.335,217.518 236.5,214.5 Z"/></g>
<g><path style="opacity:1" fill="#fce3c2" d="M 107.5,216.5 C 112.939,215.502 114.939,217.502 113.5,222.5C 111.591,223.348 109.591,223.682 107.5,223.5C 107.5,221.167 107.5,218.833 107.5,216.5 Z"/></g>
<g><path style="opacity:1" fill="#fee9c6" d="M 127.5,217.5 C 129.527,217.338 131.527,217.505 133.5,218C 134.991,220.022 134.658,221.688 132.5,223C 130.866,223.494 129.199,223.66 127.5,223.5C 127.5,221.5 127.5,219.5 127.5,217.5 Z"/></g>
<g><path style="opacity:1" fill="#f9d8ba" d="M 87.5,226.5 C 89.1667,215.833 90.8333,215.833 92.5,226.5C 90.8333,226.5 89.1667,226.5 87.5,226.5 Z"/></g>
<g><path style="opacity:1" fill="#fce5c3" d="M 201.5,224.5 C 200.432,225.434 199.099,225.768 197.5,225.5C 198.388,218.382 199.721,218.049 201.5,224.5 Z"/></g>
<g><path style="opacity:1" fill="#fde9c6" d="M 174.5,217.5 C 176.857,217.337 179.19,217.503 181.5,218C 182.727,219.587 182.394,220.921 180.5,222C 178.866,222.494 177.199,222.66 175.5,222.5C 175.5,223.5 175.5,224.5 175.5,225.5C 178.908,224.828 181.575,225.828 183.5,228.5C 183.023,229.478 182.357,230.311 181.5,231C 179.19,231.497 176.857,231.663 174.5,231.5C 174.5,226.833 174.5,222.167 174.5,217.5 Z"/></g>
<g><path style="opacity:1" fill="#e59a91" d="M 201.5,224.5 C 202.043,224.56 202.376,224.893 202.5,225.5C 200.345,226.001 198.678,227.001 197.5,228.5C 196.833,228.5 196.167,228.5 195.5,228.5C 195.932,227.29 196.599,226.29 197.5,225.5C 199.099,225.768 200.432,225.434 201.5,224.5 Z"/></g>
</svg>
